<svg xmlns="http://www.w3.org/2000/svg" viewBox="0 0 1024 1024">
  <rect width="1024" height="1024" rx="220" fill="#111111"/>
  <circle cx="512" cy="512" r="350" fill="#c62828"/>
  <path fill="#ffffff" d="M325 300c-27 18-51 42-69 69-16 25-12 57 9 78l64 64c15 15 39 17 57 5l42-27c43 47 88 88 135 123l-25 43c-11 19-8 43 7 58l62 62c22 22 57 25 82 7 26-18 48-41 66-68 14-21 13-49-4-69l-58-68c-18-21-48-26-72-13l-36 20c-54-39-101-85-141-139l19-34c13-24 8-54-13-72l-68-58c-17-15-41-17-57-1z"/>
  <path fill="#111111" d="M688 250l86 86-86 86 60 60 86-86 86 86 60-60-86-86 86-86-60-60-86 86-86-86z"/>
  <circle cx="678" cy="302" r="34" fill="#ffffff"/>
  <circle cx="812" cy="302" r="34" fill="#ffffff"/>
  <path fill="none" stroke="#ffffff" stroke-width="42" stroke-linecap="round" d="M690 420c42 35 103 35 145 0"/>
</svg>
